Linkin Park's international music video for "Burning In The Skies". 

"Burning In The Skies" is off of the album, A THOUSAND SUN	

General ::
Format                           : MP4
Format/Info                      : Audio Video Interleave
File size                        : 71.1 MiB
Duration                         : 4mn 15s
Overall bit rate                 : 2533 Kbps


Video Info ::
ID                               : 0
Format                           : AVC
Format/Info                      : Advanced Video Codec
Format profile                   : High@L5.1
Format settings, CABAC           : Yes
Format settings, ReFrames        : 2 frames
Bit rate                         : 2 713 Kbps
Width                            : 1920
Height                           : 816
Display aspect ratio             : 2.35:1
Frame rate                       : 23.000 fps
Color space                      : YUV
Bit depth                        : 8 bits
Scan type                        : Progressive
Stream size                      : 62.6 MiB (89%)


Audio Info ::
ID                               : 1
Format                           : MPEG Audio
Format version                   : Version 1
Format profile                   : Layer 3
Codec ID                         : 55
Codec ID/Hint                    : MP3
Duration                         : 4mn 15s
Bit rate mode                    : Constant
Bit rate                         : 127 Kbps
Channel(s)                       : 2 channels
Compression mode                 : Lossy
Stream size                      : 7.73 MiB (11%)	